PathFileType	4	(X/Y/Z)	Walk9.trc
DataRate	CameraRate	NumFrames	NumMarkers	Units	OrigDataRate	OrigDataStartFrame	OrigNumFrames
200.000000	200.000000	4	67	mm	200.000000	874	954
Frame#	Times		RCAR		LowerBodyModelVer		RUA1		LFHD		LTB3		LTH3		LTB2		RASI		LTB4		RFHD		LACR1		LTH1		RElbow		LToe		RACR1		RBHD		RTH3		LUA1		LCAR		RFA1		RWRU		RLFC		LASI		PELOrigin		RTH4		CLAV		LTH2		LWRR		RTB4		C7		STRN		LLFC		RBack		LElbow		RMT1		LFA1		RTH1		RTB3		LTB1		RTH2		LWRU		RToe		LPSI		RPSI		RTB1		LHJC		MidPelvis		OPelvis		RHJC		SACR		XPelvis		YPelvis		ZPelvis		LTH4		RTB2		RWRR		LElbowM		LMT1		LBHD		RLMAL		RMMAL		RCAL		LMMAL		T10		RElbowM		LCAL		LMT5
			X1	Y1	Z1	X2	Y2	Z2	X3	Y3	Z3	X4	Y4	Z4	X5	Y5	Z5	X6	Y6	Z6	X7	Y7	Z7	X8	Y8	Z8	X9	Y9	Z9	X10	Y10	Z10	X11	Y11	Z11	X12	Y12	Z12	X13	Y13	Z13	X14	Y14	Z14	X15	Y15	Z15	X16	Y16	Z16	X17	Y17	Z17	X18	Y18	Z18	X19	Y19	Z19	X20	Y20	Z20	X21	Y21	Z21	X22	Y22	Z22	X23	Y23	Z23	X24	Y24	Z24	X25	Y25	Z25	X26	Y26	Z26	X27	Y27	Z27	X28	Y28	Z28	X29	Y29	Z29	X30	Y30	Z30	X31	Y31	Z31	X32	Y32	Z32	X33	Y33	Z33	X34	Y34	Z34	X35	Y35	Z35	X36	Y36	Z36	X37	Y37	Z37	X38	Y38	Z38	X39	Y39	Z39	X40	Y40	Z40	X41	Y41	Z41	X42	Y42	Z42	X43	Y43	Z43	X44	Y44	Z44	X45	Y45	Z45	X46	Y46	Z46	X47	Y47	Z47	X48	Y48	Z48	X49	Y49	Z49	X50	Y50	Z50	X51	Y51	Z51	X52	Y52	Z52	X53	Y53	Z53	X54	Y54	Z54	X55	Y55	Z55	X56	Y56	Z56	X57	Y57	Z57	X58	Y58	Z58	X59	Y59	Z59	X60	Y60	Z60	X61	Y61	Z61	X62	Y62	Z62	X63	Y63	Z63	X64	Y64	Z64	X65	Y65	Z65	X66	Y66	Z66	X67	Y67	Z67

874	4.37	958.97	784.34	310.87	9	2014	4	869.77	1184.5	243.66	987.78	1570.9	-70.15	1084	171.33	-37.572	997.13	593.69	-148.82	1070.3	258.69	-91.789	989.77	958.47	153.48	1087.7	257.73	-33.148	991.07	1573.5	24.358	866.21	1351.6	-170.95	944.28	746.85	-204.82	823.21	1063.8	275.03	1230.8	24.739	-22.856	881.26	1362.4	140.08	835.47	1536.2	50.014	867.93	551.84	184	836.56	1166	-253.7	791.73	740.49	-296.02	847.85	917.05	291.93	887.17	813.02	296.62	841.37	466.65	165.67	1009.2	953.03	-130.22	999.48	955.75	11.627	884.39	632.83	200.05	938.68	1321.7	-17.623	1024.3	695.59	-162.63	800.09	789.64	-255.21	707.87	259.86	96.581	798.81	1398.7	-8.4797	1000.4	1219.7	-12.863	1034.3	481.04	-112.24	751.82	1306.9	104.3	781.1	1045.4	-268.44	554.97	50.141	57.133	754.45	914.68	-286.85	904.7	714.53	222.02	635.35	207.99	98.278	1093	344.23	-32.573	937.34	628.75	175.08	746.39	799.89	-302.92	596.05	23.369	89.078	749.62	942.07	-37.604	749.34	943.35	52.322	773.42	311.89	100.01	943.8	859.47	-87.283	874.48	949.23	9.493	999.48	955.75	11.627	930.6	863.16	105.63	749.48	942.71	7.359	1079.2	960	17.001	995.34	1035.6	9.8138	994.02	957.28	91.426	969.76	671.92	-172.19	689.96	278.25	154.52	945.47	832.18	257.82	758.23	1024	-190.99	1160.6	30.255	3.1026	834.09	1524.5	-92.506	521.95	163.43	123.4	539.28	158.05	42.647	462.82	194.92	83.905	1056.7	64.506	18.825	730.21	1130.2	0.0029375	815.5	1029.9	181.87	982.7	32.054	-32.348	1178.7	22.142	-59.227
875	4.375	961.71	783.93	309.58	9	2014	4	875.74	1185.6	242.94	993.75	1571.7	-71.051	1084.7	170.96	-37.897	1001.4	594.42	-149.6	1071.6	258.46	-92.084	995.41	959.44	152.95	1089	257.47	-33.401	997.01	1574.6	23.448	872.45	1352.6	-171.4	950.62	748.28	-205.61	828.78	1065	274.34	1230.8	24.834	-22.812	887.15	1363.5	139.47	841.41	1537.5	49.181	878.07	551.56	184.11	843.72	1166.9	-254.24	801.44	741.11	-296.1	852.05	918.03	291.17	890.29	813.69	295.84	852.45	466.18	166.09	1015.3	954.55	-130.75	1005.4	956.99	11.102	893.28	632.9	199.69	944.64	1322.8	-18.05	1029.5	696.03	-162.94	809.21	790.46	-255.4	716.3	260.43	97.372	804.74	1399.7	-9.1103	1006.5	1221	-13.423	1037.3	481.17	-112.86	757.75	1308	103.75	788.84	1046.1	-269.19	559.54	51.854	57.166	763.1	915.09	-287.59	912.3	715.05	221.19	644.47	209.69	98.951	1094.9	343.94	-32.939	946.38	629.5	174.73	755.87	800.32	-303.71	598.7	23.694	89.275	755.63	943.23	-38.215	755.17	944.15	51.726	784.06	311.66	101.19	949.96	860.82	-88.091	880.38	950.34	8.9285	1005.4	956.99	11.102	936.42	864.14	104.83	755.4	943.69	6.7554	1085.1	961.32	16.617	1001.1	1036.9	9.4298	999.76	958.37	90.894	975.04	673.01	-172.99	699.64	279.46	155.18	948.02	832.11	256.99	765.69	1024.6	-191.84	1160.5	30.341	3.1056	840.05	1525.2	-93.297	530.2	166.68	123.51	548.2	160.7	42.918	472.41	199.89	83.309	1056.7	64.537	18.713	736.21	1131.1	-0.55498	820.73	1031.3	181.13	982.64	32.025	-32.467	1178.7	22.179	-59.224
876	4.38	964.47	783.56	308.27	9	2014	4	881.7	1186.7	242.25	999.71	1572.6	-71.929	1085.4	170.58	-38.23	1005.4	595.1	-150.38	1072.9	258.22	-92.371	1000.9	960.39	152.52	1090.1	257.21	-33.637	1002.9	1575.8	22.556	878.67	1353.6	-171.82	956.84	749.67	-206.37	834.35	1066.1	273.7	1230.8	24.957	-22.769	892.98	1364.7	138.91	847.34	1538.7	48.38	888.13	551.41	184.21	850.89	1167.9	-254.76	811.32	741.78	-296.2	856.27	919.02	290.47	893.43	814.38	295.11	863.48	465.84	166.5	1021.4	956.02	-131.26	1011.2	958.21	10.632	902.08	633.09	199.35	950.57	1323.9	-18.433	1034.4	696.41	-163.23	818.47	791.31	-255.59	724.24	260.96	98.116	810.65	1400.7	-9.6993	1012.5	1222.2	-13.937	1040.1	481.27	-113.5	763.64	1309.2	103.23	796.61	1046.8	-269.94	564.77	53.676	57.243	771.82	915.51	-288.35	919.85	715.68	220.4	653.87	211.39	99.631	1096.6	343.65	-33.281	955.35	630.37	174.5	765.48	800.76	-304.48	602.15	24.139	89.516	761.6	944.4	-38.897	760.93	944.98	51.055	794.87	311.53	102.37	956	862.12	-88.862	886.21	951.45	8.3553	1011.2	958.21	10.632	942.12	865.1	104.11	761.27	944.69	6.0787	1090.8	962.6	16.296	1006.9	1038.1	9.0919	1005.4	959.44	90.416	980.18	674.06	-173.78	709.54	280.73	155.83	950.33	832.07	256.24	773.16	1025.3	-192.7	1160.4	30.432	3.0963	845.99	1526	-94.049	538.81	169.83	123.65	557.45	163.27	43.195	482.28	204.6	82.806	1056.7	64.56	18.587	742.17	1132.1	-1.1115	825.92	1032.7	180.45	982.57	31.993	-32.587	1178.8	22.256	-59.208
877	4.385	967.24	783.21	306.95	9	2014	4	887.63	1187.7	241.6	1005.7	1573.4	-72.783	1086.1	170.2	-38.565	1009.4	595.73	-151.16	1074.2	257.97	-92.649	1006.4	961.34	152.18	1091.2	256.95	-33.854	1008.9	1576.9	21.686	884.87	1354.6	-172.19	962.93	750.99	-207.11	839.9	1067.3	273.11	1230.7	25.096	-22.725	898.78	1365.8	138.4	853.27	1539.9	47.614	898.08	551.42	184.31	858.06	1168.8	-255.25	821.35	742.5	-296.32	860.5	920.02	289.85	896.61	815.1	294.44	874.44	465.66	166.87	1027.3	957.43	-131.74	1016.9	959.39	10.22	910.79	633.4	199.02	956.47	1324.9	-18.774	1038.9	696.72	-163.5	827.86	792.2	-255.8	731.52	261.46	98.793	816.54	1401.7	-10.246	1018.4	1223.5	-14.403	1042.7	481.33	-114.15	769.51	1310.3	102.71	804.38	1047.5	-270.7	570.69	55.583	57.372	780.62	915.95	-289.11	927.32	716.43	219.63	663.53	213.09	100.3	1098.1	343.35	-33.597	964.24	631.35	174.37	775.21	801.21	-305.24	606.48	24.712	89.808	767.53	945.56	-39.649	766.63	945.83	50.309	805.83	311.51	103.53	961.94	863.36	-89.589	891.97	952.54	7.7749	1016.9	959.39	10.22	947.69	866.02	103.47	767.08	945.7	5.33	1096.5	963.83	16.038	1012.5	1039.3	8.8014	1011	960.48	89.995	985.21	675.06	-174.58	719.65	282.06	156.46	952.35	832.04	255.58	780.63	1025.9	-193.58	1160.3	30.523	3.078	851.92	1526.7	-94.762	547.77	172.86	123.82	567.03	165.76	43.468	492.38	209	82.401	1056.7	64.577	18.454	748.1	1133.1	-1.6674	831.05	1034.1	179.84	982.5	31.96	-32.706	1178.7	22.359	-59.178
